{"title":"Vikings S Season 03 1080p WEB-DL 5 1 x265 HEVC PSA","uid":12085773,"size":6317837979,"categoryP":"video","categoryS":"hd___tv_shows","magnet":"?xt=urn:btih:84a8494b816fe92f58a0cd1ed95f357dd882f7da&amp;dn=Vikings+S+Season+03+1080p+WEB-DL+5+1+x265+HEVC+PSA&amp;tr=udp%3A%2F%2Ftracker.openbittorrent.com%3A80&amp;tr=udp%3A%2F%2Fopen.demonii.com%3A1337&amp;tr=udp%3A%2F%2Ftracker.coppersurfer.tk%3A6969&amp;tr=udp%3A%2F%2Fexodus.desync.com%3A6969","seeders":2,"leechers":0,"uploader":"punsher","files":10,"time":1435898150,"description":"THIS Season is Encoded By PSA . \nall the credit goes to him and his team .\n\nI am just an Uploader\n\nSOURCE : Vikings.Season.03.1080p.WEB-DL.DD5.1.H.264-BS ( around 1.85 each)\n\nSubtitle: ENG (SDH)\n\nEncode INFO \n\nFormat : Matroska\nFormat version : Version 4 / Version 2\nFile size : 567 MiB\nDuration : 44mn 11s\nOverall bit rate : 1 793 Kbps\nMovie name : PSArips.com | Vikings.S03E06.Born.Again.1080p.WEB-DL.DD5.1.x265.HEVC-PSA\nEncoded date : UTC 2015-03-27 13:53:00\nWriting application : mkvmerge v7.7.0 ('Six Voices') 64bit built on Feb 28 2015 23:39:33\nWriting library : libebml v1.3.1 + libmatroska v1.4.2\nDURATION : 00:43:27.869000000\nNUMBER_OF_FRAMES : 399\nNUMBER_OF_BYTES : 11998\n_STATISTICS_WRITING_APP : mkvmerge v7.7.0 ('Six Voices') 64bit built on Feb 28 2015 23:39:33\n_STATISTICS_WRITING_DATE_UT : 2015-03-27 13:53:00\n_STATISTICS_TAGS : BPS DURATION NUMBER_OF_FRAMES NUMBER_OF_BYTES\n\nVideo\nID : 1\nFormat : HEVC\nFormat/Info : High Efficiency Video Coding\nFormat profile : &lt;a class=&quot;__cf_email__&quot; href=&quot;/cdn-cgi/l/email-protection&quot; data-cfemail=&quot;9ed3fff7f0ded2aab0ae&quot;&gt;[email&amp;#160;protected]&lt;/a&gt;&lt;script data-cfhash='f9e31' type=&quot;text/javascript&quot;&gt;\n/* &lt;![CDATA[ */!function(){try{var t=&quot;currentScript&quot;in document?document.currentScript:function(){for(var t=document.getElementsByTagName(&quot;script&quot;),e=t.length;e--;)if(t[e].getAttribute(&quot;data-cfhash&quot;))return t[e]}();if(t&amp;&amp;t.previousSibling){var e,r,n,i,c=t.previousSibling,a=c.getAttribute(&quot;data-cfemail&quot;);if(a){for(e=&quot;&quot;,r=parseInt(a.substr(0,2),16),n=2;a.length-n;n+=2)i=parseInt(a.substr(n,2),16)^r,e+=String.fromCharCode(i);e=document.createTextNode(e),c.parentNode.replaceChild(e,c)}t.parentNode.removeChild(t);}}catch(u){}}()/* ]]&gt; */&lt;/script&gt;\nCodec ID : V_MPEGH/ISO/HEVC\nDuration : 44mn 11s\nBit rate : 1 374 Kbps\nWidth : 1 916 pixels\nHeight : 1 076 pixels\nDisplay aspect ratio : 16:9\nFrame rate mode : Constant\nFrame rate : 23.976 fps\nColor space : YUV\nChroma subsampling : 4:2:0\nBit depth : 8 bits\nBits/(Pixel*Frame) : 0.028\nStream size : 434 MiB (77%)\nDefault : Yes\nForced : No\nColor primaries : BT.709\nTransfer characteristics : BT.709\nMatrix coefficients : BT.709\nColor range : Limited\nDURATION : 00:44:11.694000000\nNUMBER_OF_FRAMES : 63577\nNUMBER_OF_BYTES : 466570216\n_STATISTICS_WRITING_APP : mkvmerge v7.7.0 ('Six Voices') 64bit built on Feb 28 2015 23:39:33\n_STATISTICS_WRITING_DATE_UT : 2015-03-27 13:53:00\n_STATISTICS_TAGS : BPS DURATION NUMBER_OF_FRAMES NUMBER_OF_BYTES\n\nAudio\nID : 2\nFormat : AC-3\nFormat/Info : Audio Coding 3\nMode extension : CM (complete main)\nFormat settings, Endianness : Big\nCodec ID : A_AC3\nDuration : 44mn 11s\nBit rate mode : Constant\nBit rate : 384 Kbps\nChannel(s) : 6 channels\nChannel positions : Front: L C R, Side: L R, LFE\nSampling rate : 48.0 KHz\nBit depth : 16 bits\nCompression mode : Lossy\nStream size : 121 MiB (21%)\nTitle : Surround\nLanguage : English\nDefault : Yes\nForced : No\nDURATION : 00:44:11.712000000\nNUMBER_OF_FRAMES : 82866\nNUMBER_OF_BYTES : 127282176\n_STATISTICS_WRITING_APP : mkvmerge v7.7.0 ('Six Voices') 64bit built on Feb 28 2015 23:39:33\n_STATISTICS_WRITING_DATE_UT : 2015-03-27 13:53:00\n_STATISTICS_TAGS : BPS DURATION NUMBER_OF_FRAMES NUMBER_OF_BYTES\n\nText\nID : 3\nFormat : UTF-8\nCodec ID : S_TEXT/UTF8\nCodec ID/Info : UTF-8 Plain Text\nDefault : Yes\nForced : No","torrent":{"xt":"urn:btih:84a8494b816fe92f58a0cd1ed95f357dd882f7da","amp;dn":"Vikings+S+Season+03+1080p+WEB-DL+5+1+x265+HEVC+PSA","amp;tr":["udp%3A%2F%2Ftracker.openbittorrent.com%3A80","udp%3A%2F%2Fopen.demonii.com%3A1337","udp%3A%2F%2Ftracker.coppersurfer.tk%3A6969","udp%3A%2F%2Fexodus.desync.com%3A6969"],"infoHash":"84a8494b816fe92f58a0cd1ed95f357dd882f7da","infoHashBuffer":{"type":"Buffer","data":[132,168,73,75,129,111,233,47,88,160,205,30,217,95,53,125,216,130,247,218]},"announce":[],"urlList":[]}}